<svg width="37" height="36" viewBox="0 0 37 36" fill="none" xmlns="http://www.w3.org/2000/svg">
<path d="M0.275568 28V1.81818H5.81108V23.4361H17.0355V28H0.275568ZM20.5991 8.36364H26.0451V28.9716C26.0451 30.4886 25.7468 31.7159 25.1502 32.6534C24.5536 33.5909 23.6971 34.277 22.5806 34.7116C21.4727 35.1463 20.1474 35.3636 18.6048 35.3636C18.4173 35.3636 18.2383 35.3594 18.0678 35.3509C17.8888 35.3509 17.7013 35.3466 17.5053 35.3381V31.081C17.6502 31.0895 17.7781 31.0938 17.8888 31.0938C17.9911 31.1023 18.1019 31.1065 18.2212 31.1065C19.0991 31.1065 19.7127 30.919 20.0621 30.544C20.4201 30.1776 20.5991 29.6236 20.5991 28.8821V8.36364ZM23.3093 5.83239C22.5082 5.83239 21.8178 5.56392 21.2383 5.02699C20.6587 4.48153 20.369 3.82954 20.369 3.07102C20.369 2.32102 20.6587 1.67756 21.2383 1.14062C21.8178 0.59517 22.5082 0.322442 23.3093 0.322442C24.1275 0.322442 24.8221 0.59517 25.3931 1.14062C25.9727 1.67756 26.2624 2.32102 26.2624 3.07102C26.2624 3.82954 25.9727 4.48153 25.3931 5.02699C24.8221 5.56392 24.1275 5.83239 23.3093 5.83239ZM33.5909 28.3324C32.7472 28.3324 32.0227 28.0341 31.4176 27.4375C30.821 26.8324 30.5227 26.108 30.5227 25.2642C30.5227 24.429 30.821 23.7131 31.4176 23.1165C32.0227 22.5199 32.7472 22.2216 33.5909 22.2216C34.4091 22.2216 35.125 22.5199 35.7386 23.1165C36.3523 23.7131 36.6591 24.429 36.6591 25.2642C36.6591 25.8267 36.5142 26.3423 36.2244 26.8111C35.9432 27.2713 35.5724 27.642 35.1122 27.9233C34.652 28.196 34.1449 28.3324 33.5909 28.3324Z" fill="#FFE600"/>
</svg>
